<svg width="17" height="11" viewBox="0 0 17 11" fill="none" xmlns="http://www.w3.org/2000/svg">
<path d="M0 0H17V10H0V0Z" fill="#41479B"/>
<path d="M17 8.69793L10.7135 5.00001L17 1.30209V0H14.7865L8.5 3.69792L2.21354 0H0V1.30208L6.28646 5.00001L0 8.69793V10H2.21357L8.5 6.30209L14.7864 10H17V8.69793Z" fill="white"/>
<path fill-rule="evenodd" clip-rule="evenodd" d="M2.58891e-06 0L0 2.70735e-06V0.52084L7.61458 5.00001L0 9.47919V10L0.318751 10.3334L8.5 5.52085L16 9.93262V8.89095L9.38541 5.00001L16 1.10907V0.0674042L8.5 4.47918L0.885406 0H2.58891e-06Z" fill="#DC251C"/>
<path fill-rule="evenodd" clip-rule="evenodd" d="M6.375 3.33333V0H10.625V3.33333H17V6.66667H10.625V10H6.375V6.66667H0V3.33333H6.375Z" fill="white"/>
<path fill-rule="evenodd" clip-rule="evenodd" d="M7.4375 4.16667V0H9.5625V4.16667H17V5.83333H9.5625V10H7.4375V5.83333H0V4.16667H7.4375Z" fill="#DC251C"/>
</svg>
